<?xml version="1.0" encoding="UTF-8"?>
<!DOCTYPE svg PUBLIC "-//W3C//DTD SVG 1.1//EN" "http://www.w3.org/Graphics/SVG/1.1/DTD/svg11.dtd">
<svg xmlns="http://www.w3.org/2000/svg" xmlns:xlink="http://www.w3.org/1999/xlink" version="1.1" width="751px" height="401px" viewBox="-0.5 -0.5 751 401"><defs><clipPath id="mx-clip-0-30-70-30-0"><rect x="0" y="30" width="70" height="30"/></clipPath><clipPath id="mx-clip-76-30-154-30-0"><rect x="76" y="30" width="154" height="30"/></clipPath><clipPath id="mx-clip-0-60-70-30-0"><rect x="0" y="60" width="70" height="30"/></clipPath><clipPath id="mx-clip-76-60-154-30-0"><rect x="76" y="60" width="154" height="30"/></clipPath><clipPath id="mx-clip-76-90-154-30-0"><rect x="76" y="90" width="154" height="30"/></clipPath><clipPath id="mx-clip-0-120-70-30-0"><rect x="0" y="120" width="70" height="30"/></clipPath><clipPath id="mx-clip-76-120-154-30-0"><rect x="76" y="120" width="154" height="30"/></clipPath><clipPath id="mx-clip-76-150-154-30-0"><rect x="76" y="150" width="154" height="30"/></clipPath><clipPath id="mx-clip-480-30-60-30-0"><rect x="480" y="30" width="60" height="30"/></clipPath><clipPath id="mx-clip-546-30-204-30-0"><rect x="546" y="30" width="204" height="30"/></clipPath><clipPath id="mx-clip-480-60-60-30-0"><rect x="480" y="60" width="60" height="30"/></clipPath><clipPath id="mx-clip-546-60-204-30-0"><rect x="546" y="60" width="204" height="30"/></clipPath><clipPath id="mx-clip-480-90-60-30-0"><rect x="480" y="90" width="60" height="30"/></clipPath><clipPath id="mx-clip-546-90-204-30-0"><rect x="546" y="90" width="204" height="30"/></clipPath><clipPath id="mx-clip-480-120-60-30-0"><rect x="480" y="120" width="60" height="30"/></clipPath><clipPath id="mx-clip-546-120-204-30-0"><rect x="546" y="120" width="204" height="30"/></clipPath><clipPath id="mx-clip-480-150-60-30-0"><rect x="480" y="150" width="60" height="30"/></clipPath><clipPath id="mx-clip-546-150-204-30-0"><rect x="546" y="150" width="204" height="30"/></clipPath><clipPath id="mx-clip-480-180-60-30-0"><rect x="480" y="180" width="60" height="30"/></clipPath><clipPath id="mx-clip-546-180-204-30-0"><rect x="546" y="180" width="204" height="30"/></clipPath><clipPath id="mx-clip-480-210-60-30-0"><rect x="480" y="210" width="60" height="30"/></clipPath><clipPath id="mx-clip-546-210-204-30-0"><rect x="546" y="210" width="204" height="30"/></clipPath><clipPath id="mx-clip-480-240-60-30-0"><rect x="480" y="240" width="60" height="30"/></clipPath><clipPath id="mx-clip-546-240-204-30-0"><rect x="546" y="240" width="204" height="30"/></clipPath><clipPath id="mx-clip-480-270-60-30-0"><rect x="480" y="270" width="60" height="30"/></clipPath><clipPath id="mx-clip-546-270-204-30-0"><rect x="546" y="270" width="204" height="30"/></clipPath><clipPath id="mx-clip-480-300-60-30-0"><rect x="480" y="300" width="60" height="30"/></clipPath><clipPath id="mx-clip-546-300-204-30-0"><rect x="546" y="300" width="204" height="30"/></clipPath></defs><g><path d="M 0 30 L 0 0 L 230 0 L 230 30" fill="#a20025" stroke="#6f0000" stroke-miterlimit="10" pointer-events="all"/><path d="M 0 30 L 0 230 L 230 230 L 230 30" fill="none" stroke="#6f0000" stroke-miterlimit="10" pointer-events="none"/><path d="M 0 30 L 230 30" fill="none" stroke="#6f0000" stroke-miterlimit="10" pointer-events="none"/><path d="M 70 30 L 70 230" fill="none" stroke="#6f0000" stroke-miterlimit="10" pointer-events="none"/><g fill="#000000" font-family="Helvetica" font-weight="bold" pointer-events="none" text-anchor="middle" font-size="12px"><rect fill="#ffffff" stroke="none" x="95" y="9" width="41" height="15" stroke-width="0"/><text x="114.5" y="19.5">Recipe</text></g><path d="M 0 30 M 230 30 M 230 60 L 0 60" fill="none" stroke="#000000" stroke-miterlimit="10" pointer-events="none"/><path d="M 0 30 M 70 30 M 70 60 M 0 60" fill="none" stroke="#000000" stroke-miterlimit="10" pointer-events="none"/><g fill="#000000" font-family="Helvetica" font-weight="bold" pointer-events="none" clip-path="url(#mx-clip-0-30-70-30-0)" text-anchor="middle" font-size="12px"><text x="34.5" y="49.5">PK</text></g><path d="M 70 30 M 230 30 M 230 60 M 70 60" fill="none" stroke="#000000" stroke-miterlimit="10" pointer-events="none"/><g fill="#000000" font-family="Helvetica" font-weight="bold" text-decoration="underline" pointer-events="none" clip-path="url(#mx-clip-76-30-154-30-0)" font-size="12px"><text x="77.5" y="49.5">recipe_id: integer</text></g><path d="M 0 60 M 230 60 M 230 90 M 0 90" fill="none" stroke="#000000" stroke-miterlimit="10" pointer-events="none"/><path d="M 0 60 M 70 60 M 70 90 M 0 90" fill="none" stroke="#000000" stroke-miterlimit="10" pointer-events="none"/><g fill="#000000" font-family="Helvetica" pointer-events="none" clip-path="url(#mx-clip-0-60-70-30-0)" text-anchor="middle" font-size="12px"><text x="34.5" y="79.5">IX1</text></g><path d="M 70 60 M 230 60 M 230 90 M 70 90" fill="none" stroke="#000000" stroke-miterlimit="10" pointer-events="none"/><g fill="#000000" font-family="Helvetica" pointer-events="none" clip-path="url(#mx-clip-76-60-154-30-0)" font-size="12px"><text x="77.5" y="79.5">title: text</text></g><path d="M 0 90 M 230 90 M 230 120 M 0 120" fill="none" stroke="#000000" stroke-miterlimit="10" pointer-events="none"/><path d="M 0 90 M 70 90 M 70 120 M 0 120" fill="none" stroke="#000000" stroke-miterlimit="10" pointer-events="none"/><path d="M 70 90 M 230 90 M 230 120 M 70 120" fill="none" stroke="#000000" stroke-miterlimit="10" pointer-events="none"/><g fill="#000000" font-family="Helvetica" pointer-events="none" clip-path="url(#mx-clip-76-90-154-30-0)" font-size="12px"><text x="77.5" y="109.5">description: text</text></g><path d="M 0 120 M 230 120 M 230 150 M 0 150" fill="none" stroke="#000000" stroke-miterlimit="10" pointer-events="none"/><path d="M 0 120 M 70 120 M 70 150 M 0 150" fill="none" stroke="#000000" stroke-miterlimit="10" pointer-events="none"/><g fill="#000000" font-family="Helvetica" pointer-events="none" clip-path="url(#mx-clip-0-120-70-30-0)" text-anchor="middle" font-size="12px"><text x="34.5" y="139.5">IX2</text></g><path d="M 70 120 M 230 120 M 230 150 M 70 150" fill="none" stroke="#000000" stroke-miterlimit="10" pointer-events="none"/><g fill="#000000" font-family="Helvetica" pointer-events="none" clip-path="url(#mx-clip-76-120-154-30-0)" font-size="12px"><text x="77.5" y="139.5">created: numeric</text></g><path d="M 0 150 M 230 150 M 230 180 M 0 180" fill="none" stroke="#000000" stroke-miterlimit="10" pointer-events="none"/><path d="M 0 150 M 70 150 M 70 180 M 0 180" fill="none" stroke="#000000" stroke-miterlimit="10" pointer-events="none"/><path d="M 70 150 M 230 150 M 230 180 M 70 180" fill="none" stroke="#000000" stroke-miterlimit="10" pointer-events="none"/><g fill="#000000" font-family="Helvetica" pointer-events="none" clip-path="url(#mx-clip-76-150-154-30-0)" font-size="12px"><text x="77.5" y="169.5">steps: text</text></g><path d="M 480 30 L 480 0 L 750 0 L 750 30" fill="#fa6800" stroke="#c73500" stroke-miterlimit="10" pointer-events="none"/><path d="M 480 30 L 480 400 L 750 400 L 750 30" fill="none" stroke="#c73500" stroke-miterlimit="10" pointer-events="none"/><path d="M 480 30 L 750 30" fill="none" stroke="#c73500" stroke-miterlimit="10" pointer-events="none"/><path d="M 540 30 L 540 400" fill="none" stroke="#c73500" stroke-miterlimit="10" pointer-events="none"/><g fill="#000000" font-family="Helvetica" font-weight="bold" pointer-events="none" text-anchor="middle" font-size="12px"><rect fill="#ffffff" stroke="none" x="586" y="9" width="60" height="15" stroke-width="0"/><text x="614.5" y="19.5">Ingredient</text></g><path d="M 480 30 M 750 30 M 750 60 L 480 60" fill="none" stroke="#000000" stroke-miterlimit="10" pointer-events="none"/><path d="M 480 30 M 540 30 M 540 60 M 480 60" fill="none" stroke="#000000" stroke-miterlimit="10" pointer-events="none"/><g fill="#000000" font-family="Helvetica" font-weight="bold" pointer-events="none" clip-path="url(#mx-clip-480-30-60-30-0)" text-anchor="middle" font-size="12px"><text x="509.5" y="49.5">PK</text></g><path d="M 540 30 M 750 30 M 750 60 M 540 60" fill="none" stroke="#000000" stroke-miterlimit="10" pointer-events="none"/><g fill="#000000" font-family="Helvetica" font-weight="bold" text-decoration="underline" pointer-events="none" clip-path="url(#mx-clip-546-30-204-30-0)" font-size="12px"><text x="547.5" y="49.5">ingredient_id: text</text></g><path d="M 480 60 M 750 60 M 750 90 M 480 90" fill="none" stroke="#000000" stroke-miterlimit="10" pointer-events="none"/><path d="M 480 60 M 540 60 M 540 90 M 480 90" fill="none" stroke="#000000" stroke-miterlimit="10" pointer-events="none"/><g fill="#000000" font-family="Helvetica" pointer-events="none" clip-path="url(#mx-clip-480-60-60-30-0)" text-anchor="middle" font-size="12px"><text x="509.5" y="79.5"> IX1   </text></g><path d="M 540 60 M 750 60 M 750 90 M 540 90" fill="none" stroke="#000000" stroke-miterlimit="10" pointer-events="none"/><g fill="#000000" font-family="Helvetica" pointer-events="none" clip-path="url(#mx-clip-546-60-204-30-0)" font-size="12px"><text x="547.5" y="79.5">name: text</text></g><path d="M 480 90 M 750 90 M 750 120 M 480 120" fill="none" stroke="#000000" stroke-miterlimit="10" pointer-events="none"/><path d="M 480 90 M 540 90 M 540 120 M 480 120" fill="none" stroke="#000000" stroke-miterlimit="10" pointer-events="none"/><g fill="#000000" font-family="Helvetica" pointer-events="none" clip-path="url(#mx-clip-480-90-60-30-0)" text-anchor="middle" font-size="12px"><text x="509.5" y="109.5">IX2, UK2</text></g><path d="M 540 90 M 750 90 M 750 120 M 540 120" fill="none" stroke="#000000" stroke-miterlimit="10" pointer-events="none"/><g fill="#000000" font-family="Helvetica" pointer-events="none" clip-path="url(#mx-clip-546-90-204-30-0)" font-size="12px"><text x="547.5" y="109.5">unit_of_measure: numeric</text></g><path d="M 480 120 M 750 120 M 750 150 M 480 150" fill="none" stroke="#000000" stroke-miterlimit="10" pointer-events="none"/><path d="M 480 120 M 540 120 M 540 150 M 480 150" fill="none" stroke="#000000" stroke-miterlimit="10" pointer-events="none"/><g fill="#000000" font-family="Helvetica" pointer-events="none" clip-path="url(#mx-clip-480-120-60-30-0)" text-anchor="middle" font-size="12px"><text x="509.5" y="139.5">IX4</text></g><path d="M 540 120 M 750 120 M 750 150 M 540 150" fill="none" stroke="#000000" stroke-miterlimit="10" pointer-events="none"/><g fill="#000000" font-family="Helvetica" pointer-events="none" clip-path="url(#mx-clip-546-120-204-30-0)" font-size="12px"><text x="547.5" y="139.5">min_carb: real</text></g><path d="M 480 150 M 750 150 M 750 180 M 480 180" fill="none" stroke="#000000" stroke-miterlimit="10" pointer-events="none"/><path d="M 480 150 M 540 150 M 540 180 M 480 180" fill="none" stroke="#000000" stroke-miterlimit="10" pointer-events="none"/><g fill="#000000" font-family="Helvetica" pointer-events="none" clip-path="url(#mx-clip-480-150-60-30-0)" text-anchor="middle" font-size="12px"><text x="509.5" y="169.5">IX5</text></g><path d="M 540 150 M 750 150 M 750 180 M 540 180" fill="none" stroke="#000000" stroke-miterlimit="10" pointer-events="none"/><g fill="#000000" font-family="Helvetica" pointer-events="none" clip-path="url(#mx-clip-546-150-204-30-0)" font-size="12px"><text x="547.5" y="169.5">max_carb: real        </text></g><path d="M 480 180 M 750 180 M 750 210 M 480 210" fill="none" stroke="#000000" stroke-miterlimit="10" pointer-events="none"/><path d="M 480 180 M 540 180 M 540 210 M 480 210" fill="none" stroke="#000000" stroke-miterlimit="10" pointer-events="none"/><g fill="#000000" font-family="Helvetica" pointer-events="none" clip-path="url(#mx-clip-480-180-60-30-0)" text-anchor="middle" font-size="12px"><text x="509.5" y="199.5">   IX6</text></g><path d="M 540 180 M 750 180 M 750 210 M 540 210" fill="none" stroke="#000000" stroke-miterlimit="10" pointer-events="none"/><g fill="#000000" font-family="Helvetica" pointer-events="none" clip-path="url(#mx-clip-546-180-204-30-0)" font-size="12px"><text x="547.5" y="199.5">min_protein: real</text></g><path d="M 480 210 M 750 210 M 750 240 M 480 240" fill="none" stroke="#000000" stroke-miterlimit="10" pointer-events="none"/><path d="M 480 210 M 540 210 M 540 240 M 480 240" fill="none" stroke="#000000" stroke-miterlimit="10" pointer-events="none"/><g fill="#000000" font-family="Helvetica" pointer-events="none" clip-path="url(#mx-clip-480-210-60-30-0)" text-anchor="middle" font-size="12px"><text x="509.5" y="229.5">IX7</text></g><path d="M 540 210 M 750 210 M 750 240 M 540 240" fill="none" stroke="#000000" stroke-miterlimit="10" pointer-events="none"/><g fill="#000000" font-family="Helvetica" pointer-events="none" clip-path="url(#mx-clip-546-210-204-30-0)" font-size="12px"><text x="547.5" y="229.5">max_protein: real</text></g><path d="M 480 240 M 750 240 M 750 270 M 480 270" fill="none" stroke="#000000" stroke-miterlimit="10" pointer-events="none"/><path d="M 480 240 M 540 240 M 540 270 M 480 270" fill="none" stroke="#000000" stroke-miterlimit="10" pointer-events="none"/><g fill="#000000" font-family="Helvetica" pointer-events="none" clip-path="url(#mx-clip-480-240-60-30-0)" text-anchor="middle" font-size="12px"><text x="509.5" y="259.5">IX8</text></g><path d="M 540 240 M 750 240 M 750 270 M 540 270" fill="none" stroke="#000000" stroke-miterlimit="10" pointer-events="none"/><g fill="#000000" font-family="Helvetica" pointer-events="none" clip-path="url(#mx-clip-546-240-204-30-0)" font-size="12px"><text x="547.5" y="259.5">min_fat: real</text></g><path d="M 480 270 M 750 270 M 750 300 M 480 300" fill="none" stroke="#000000" stroke-miterlimit="10" pointer-events="none"/><path d="M 480 270 M 540 270 M 540 300 M 480 300" fill="none" stroke="#000000" stroke-miterlimit="10" pointer-events="none"/><g fill="#000000" font-family="Helvetica" pointer-events="none" clip-path="url(#mx-clip-480-270-60-30-0)" text-anchor="middle" font-size="12px"><text x="509.5" y="289.5">IX9</text></g><path d="M 540 270 M 750 270 M 750 300 M 540 300" fill="none" stroke="#000000" stroke-miterlimit="10" pointer-events="none"/><g fill="#000000" font-family="Helvetica" pointer-events="none" clip-path="url(#mx-clip-546-270-204-30-0)" font-size="12px"><text x="547.5" y="289.5">max_fat: real</text></g><path d="M 480 300 M 750 300 M 750 330 M 480 330" fill="none" stroke="#000000" stroke-miterlimit="10" pointer-events="none"/><path d="M 480 300 M 540 300 M 540 330 M 480 330" fill="none" stroke="#000000" stroke-miterlimit="10" pointer-events="none"/><g fill="#000000" font-family="Helvetica" pointer-events="none" clip-path="url(#mx-clip-480-300-60-30-0)" text-anchor="middle" font-size="12px"><text x="509.5" y="319.5">IX10</text></g><path d="M 540 300 M 750 300 M 750 330 M 540 330" fill="none" stroke="#000000" stroke-miterlimit="10" pointer-events="none"/><g fill="#000000" font-family="Helvetica" pointer-events="none" clip-path="url(#mx-clip-546-300-204-30-0)" font-size="12px"><text x="547.5" y="319.5">created: numeric</text></g><path d="M 230 150 L 260 150 L 450 300.99 L 480 300.99" fill="none" stroke="#000000" stroke-miterlimit="10" pointer-events="none"/><ellipse cx="242" cy="150" rx="3" ry="3" fill="#ffffff" stroke="#000000" pointer-events="none"/><path d="M 234 146 L 234 154" fill="none" stroke="#000000" stroke-miterlimit="10" pointer-events="none"/><path d="M 472 304.99 L 472 296.99 M 480 296.99 L 472 300.99 L 480 304.99" fill="none" stroke="#000000" stroke-miterlimit="10" pointer-events="none"/></g></svg>